HIERARCHY
ROOT Hips
{
 OFFSET 0.000000 0.000000 0.000000
 CHANNELS 6 Xposition Yposition Zposition Yrotation Xrotation Zrotation
 JOINT Chest
 {
  OFFSET 0.000000 10.388337 0.005184
  CHANNELS 3 Yrotation Xrotation Zrotation
  JOINT Chest2
  {
   OFFSET 0.000000 10.458247 -0.010579
   CHANNELS 3 Yrotation Xrotation Zrotation
   JOINT Chest3
   {
    OFFSET 0.000000 10.415828 0.000000
    CHANNELS 3 Yrotation Xrotation Zrotation
    JOINT Chest4
    {
     OFFSET 0.000000 10.405206 0.000000
     CHANNELS 3 Yrotation Xrotation Zrotation
     JOINT Neck
     {
      OFFSET 0.000000 15.720090 0.000000
      CHANNELS 3 Yrotation Xrotation Zrotation
      JOINT Head
      {
       OFFSET 0.000000 9.732643 -0.022378
       CHANNELS 3 Yrotation Xrotation Zrotation
       End Site
       {
        OFFSET 0.000000 18.603619 -0.011814
       }
      }
     }
     JOINT RightCollar
     {
      OFFSET -3.167735 10.388953 0.000000
      CHANNELS 3 Yrotation Xrotation Zrotation
      JOINT RightShoulder
      {
       OFFSET -14.584825 0.000000 0.000000
       CHANNELS 3 Yrotation Xrotation Zrotation
       JOINT RightElbow
       {
        OFFSET 0.000000 -31.921689 0.000000
        CHANNELS 3 Yrotation Xrotation Zrotation
        JOINT RightWrist
        {
         OFFSET 0.000000 -25.835217 0.000000
         CHANNELS 3 Yrotation Xrotation Zrotation
         End Site
         {
          OFFSET 0.000000 -19.128920 0.000000
         }
        }
       }
      }
     }
     JOINT LeftCollar
     {
      OFFSET 3.167735 10.388953 0.000000
      CHANNELS 3 Yrotation Xrotation Zrotation
      JOINT LeftShoulder
      {
       OFFSET 14.584825 0.000000 0.000000
       CHANNELS 3 Yrotation Xrotation Zrotation
       JOINT LeftElbow
       {
        OFFSET 0.000000 -31.921689 0.000000
        CHANNELS 3 Yrotation Xrotation Zrotation
        JOINT LeftWrist
        {
         OFFSET 0.000000 -25.835217 0.000000
         CHANNELS 3 Yrotation Xrotation Zrotation
         End Site
         {
          OFFSET 0.000000 -19.128920 0.000000
         }
        }
       }
      }
     }
    }
   }
  }
 }
 JOINT RightHip
 {
  OFFSET -8.403278 -0.025659 -0.002592
  CHANNELS 3 Yrotation Xrotation Zrotation
  JOINT RightKnee
  {
   OFFSET 0.000000 -44.040977 0.002477
   CHANNELS 3 Yrotation Xrotation Zrotation
   JOINT RightAnkle
   {
    OFFSET 0.000000 -42.951162 0.004189
    CHANNELS 3 Yrotation Xrotation Zrotation
    JOINT RightToe
    {
     OFFSET 0.000000 -5.494238 12.197485
     CHANNELS 3 Yrotation Xrotation Zrotation
     End Site
     {
      OFFSET 0.000000 -1.538716 6.371628
     }
    }
   }
  }
 }
 JOINT LeftHip
 {
  OFFSET 8.403278 -0.025659 -0.002592
  CHANNELS 3 Yrotation Xrotation Zrotation
  JOINT LeftKnee
  {
   OFFSET 0.000000 -44.040977 0.002477
   CHANNELS 3 Yrotation Xrotation Zrotation
   JOINT LeftAnkle
   {
    OFFSET 0.000000 -42.951162 0.004189
    CHANNELS 3 Yrotation Xrotation Zrotation
    JOINT LeftToe
    {
     OFFSET 0.000000 -5.494238 12.197485
     CHANNELS 3 Yrotation Xrotation Zrotation
     End Site
     {
      OFFSET 0.000000 -1.538716 6.371628
     }
    }
   }
  }
 }
}
MOTION
Frames: 5
Frame Time: 0.008333
-14.487139 92.568504 654.140565 126.811532 -13.075971 -0.663293 -2.876202 6.480522 -4.486445 -0.126061 0.318117 -0.233404 -0.220712 0.554488 -0.407537 -2.610711 5.918025 -4.544743 4.491113 18.292207 7.256418 5.898990 -1.900449 11.871293 16.524645 -15.694920 -14.696224 19.733900 -66.561128 -22.155327 -48.317473 -18.321787 25.752250 -34.191492 -11.328334 15.734048 -11.291709 -5.826058 16.081889 -6.400752 -71.285405 15.080023 41.947873 1.219689 -9.216605 12.158158 -6.438876 13.497900 -1.215130 15.261998 4.477994 -2.100892 8.666729 1.464456 -21.518564 -11.206319 -4.206651 0.100094 0.529277 0.196773 4.221237 -2.841535 6.249527 15.183219 19.285888 3.846587 -13.499847 -2.374884 -5.707189 -0.233214 -0.068238 -0.125962
-14.541255 92.582221 654.099260 126.314871 -13.064132 -0.591863 -2.725443 6.668575 -4.550794 -0.120752 0.331119 -0.240604 -0.211373 0.576797 -0.419823 -2.482039 6.068556 -4.606033 4.640086 18.141296 7.331166 6.138942 -2.187634 11.960394 16.441807 -15.984985 -14.795774 20.854765 -67.279442 -22.980302 -48.939809 -17.755849 25.515880 -34.477501 -11.245925 15.309134 -11.415854 -5.648708 16.007913 -4.231732 -71.174366 13.322204 42.688379 1.121321 -10.244459 12.574094 -8.058788 13.469282 -1.278385 15.146288 4.281924 -1.847466 8.840610 1.539973 -21.274173 -11.240795 -4.252132 0.103020 0.539808 0.193709 4.510833 -2.761876 6.237285 15.300940 19.207853 3.821068 -13.405939 -2.352717 -5.653923 -0.253845 -0.098056 -0.138150
-14.590266 92.595306 654.070987 125.842740 -13.043945 -0.536923 -2.634001 6.831193 -4.565079 -0.118410 0.342655 -0.245307 -0.207222 0.596570 -0.427789 -2.414127 6.199248 -4.631327 4.795758 18.018402 7.350890 6.410890 -2.424005 11.945680 16.610432 -16.183156 -14.941924 22.384561 -67.975868 -24.315763 -49.608676 -16.915083 24.876919 -34.941340 -11.301442 14.495970 -11.383910 -5.542741 15.879949 -1.694531 -71.079671 11.135504 43.309198 0.942463 -11.548250 13.067866 -10.035304 13.204611 -1.345062 15.013666 4.103474 -1.611177 9.026177 1.626861 -21.019622 -11.268745 -4.299071 0.103098 0.535955 0.183175 4.762926 -2.711207 6.263126 15.410897 19.167039 3.769947 -13.322464 -2.321619 -5.604162 -0.250318 -0.138246 -0.142645
-14.633954 92.607974 654.056635 125.397294 -13.006617 -0.500966 -2.597934 6.967745 -4.535088 -0.119137 0.352466 -0.247830 -0.208425 0.613368 -0.431997 -2.406465 6.307235 -4.628397 4.962307 17.924357 7.323169 6.720333 -2.607792 11.839655 17.022108 -16.314389 -15.129727 24.001740 -68.583178 -25.813785 -50.280896 -15.943296 23.935784 -35.545692 -11.514529 13.279420 -11.185952 -5.516824 15.718164 0.992783 -70.995863 8.706963 43.865627 0.708394 -13.160602 13.590674 -12.372743 12.917517 -1.402867 14.857032 3.951901 -1.399693 9.216929 1.722892 -20.770820 -11.285702 -4.346417 0.099860 0.516559 0.165813 4.970506 -2.699903 6.316182 15.504011 19.162951 3.711144 -13.224240 -2.286924 -5.562973 -0.224865 -0.185602 -0.143689
-14.672054 92.620414 654.057163 124.968100 -12.942163 -0.485795 -2.555516 7.073887 -4.476114 -0.119549 0.359645 -0.248491 -0.209100 0.625676 -0.433025 -2.400169 6.390617 -4.608578 5.110798 17.861046 7.274464 7.005611 -2.733350 11.700686 17.525876 -16.375918 -15.328823 25.606438 -69.092087 -27.301311 -50.952019 -14.958819 22.718396 -36.270342 -11.733911 11.666927 -10.926934 -5.545622 15.565439 3.652379 -70.930892 6.203014 44.342878 0.417790 -15.044197 14.125906 -14.983753 12.796227 -1.442365 14.670158 3.835777 -1.205374 9.403303 1.821493 -20.534054 -11.286080 -4.393138 0.093823 0.482695 0.142479 5.125007 -2.737590 6.388168 15.584257 19.195489 3.661822 -13.083136 -2.253970 -5.535177 -0.186095 -0.238765 -0.145257
